<mxfile host="app.diagrams.net" modified="2023-04-17T11:38:17.215Z" agent="Mozilla/5.0 (Windows NT 10.0; Win64; x64) AppleWebKit/537.36 (KHTML, like Gecko) Chrome/111.0.0.0 Safari/537.36" etag="QHqtWPvAV901kFnfZtrK" version="21.1.8" type="device">
  <diagram name="Страница 1" id="DEORVGzJJ_lJrnCxlvWD">
    <mxGraphModel dx="988" dy="665" grid="1" gridSize="10" guides="1" tooltips="1" connect="1" arrows="1" fold="1" page="1" pageScale="1" pageWidth="827" pageHeight="1169" math="0" shadow="0">
      <root>
        <mxCell id="0" />
        <mxCell id="1" parent="0" />
        <mxCell id="WABIjmfoGisGZbEx76XI-3" value="" style="edgeStyle=orthogonalEdgeStyle;rounded=0;orthogonalLoop=1;jettySize=auto;html=1;" edge="1" parent="1" target="WABIjmfoGisGZbEx76XI-2">
          <mxGeometry relative="1" as="geometry">
            <mxPoint x="400" y="80" as="sourcePoint" />
          </mxGeometry>
        </mxCell>
        <mxCell id="WABIjmfoGisGZbEx76XI-1" value="start" style="ellipse;whiteSpace=wrap;html=1;" vertex="1" parent="1">
          <mxGeometry x="340" width="120" height="80" as="geometry" />
        </mxCell>
        <mxCell id="WABIjmfoGisGZbEx76XI-5" value="" style="edgeStyle=orthogonalEdgeStyle;rounded=0;orthogonalLoop=1;jettySize=auto;html=1;" edge="1" parent="1" source="WABIjmfoGisGZbEx76XI-2" target="WABIjmfoGisGZbEx76XI-4">
          <mxGeometry relative="1" as="geometry" />
        </mxCell>
        <mxCell id="WABIjmfoGisGZbEx76XI-2" value="str,&lt;br&gt;num" style="shape=parallelogram;perimeter=parallelogramPerimeter;whiteSpace=wrap;html=1;fixedSize=1;" vertex="1" parent="1">
          <mxGeometry x="340" y="110" width="120" height="60" as="geometry" />
        </mxCell>
        <mxCell id="WABIjmfoGisGZbEx76XI-7" value="" style="edgeStyle=orthogonalEdgeStyle;rounded=0;orthogonalLoop=1;jettySize=auto;html=1;" edge="1" parent="1" source="WABIjmfoGisGZbEx76XI-4">
          <mxGeometry relative="1" as="geometry">
            <mxPoint x="400" y="300" as="targetPoint" />
          </mxGeometry>
        </mxCell>
        <mxCell id="WABIjmfoGisGZbEx76XI-4" value="srting to array" style="whiteSpace=wrap;html=1;" vertex="1" parent="1">
          <mxGeometry x="340" y="200" width="120" height="60" as="geometry" />
        </mxCell>
        <mxCell id="WABIjmfoGisGZbEx76XI-17" value="yes&lt;br&gt;" style="edgeStyle=orthogonalEdgeStyle;rounded=0;orthogonalLoop=1;jettySize=auto;html=1;exitX=0.5;exitY=1;exitDx=0;exitDy=0;" edge="1" parent="1" source="WABIjmfoGisGZbEx76XI-20" target="WABIjmfoGisGZbEx76XI-16">
          <mxGeometry relative="1" as="geometry">
            <mxPoint x="400" y="400" as="sourcePoint" />
          </mxGeometry>
        </mxCell>
        <mxCell id="WABIjmfoGisGZbEx76XI-13" value="yes" style="edgeStyle=orthogonalEdgeStyle;rounded=0;orthogonalLoop=1;jettySize=auto;html=1;exitX=0.5;exitY=1;exitDx=0;exitDy=0;" edge="1" parent="1" source="WABIjmfoGisGZbEx76XI-16" target="WABIjmfoGisGZbEx76XI-12">
          <mxGeometry relative="1" as="geometry">
            <mxPoint x="422.8654964271593" y="514.7180449914902" as="sourcePoint" />
          </mxGeometry>
        </mxCell>
        <mxCell id="WABIjmfoGisGZbEx76XI-22" value="" style="edgeStyle=orthogonalEdgeStyle;rounded=0;orthogonalLoop=1;jettySize=auto;html=1;entryX=1;entryY=0.5;entryDx=0;entryDy=0;" edge="1" parent="1" source="WABIjmfoGisGZbEx76XI-12" target="WABIjmfoGisGZbEx76XI-20">
          <mxGeometry relative="1" as="geometry">
            <mxPoint x="540" y="300" as="targetPoint" />
            <Array as="points">
              <mxPoint x="550" y="600" />
              <mxPoint x="550" y="340" />
            </Array>
          </mxGeometry>
        </mxCell>
        <mxCell id="WABIjmfoGisGZbEx76XI-12" value="add to &quot;new array&quot;" style="shape=parallelogram;perimeter=parallelogramPerimeter;whiteSpace=wrap;html=1;fixedSize=1;" vertex="1" parent="1">
          <mxGeometry x="340" y="570" width="120" height="60" as="geometry" />
        </mxCell>
        <mxCell id="WABIjmfoGisGZbEx76XI-19" value="no" style="edgeStyle=orthogonalEdgeStyle;rounded=0;orthogonalLoop=1;jettySize=auto;html=1;entryX=0.98;entryY=0.605;entryDx=0;entryDy=0;exitX=1;exitY=0.5;exitDx=0;exitDy=0;entryPerimeter=0;" edge="1" parent="1" source="WABIjmfoGisGZbEx76XI-16" target="WABIjmfoGisGZbEx76XI-20">
          <mxGeometry relative="1" as="geometry">
            <mxPoint x="500" y="350" as="targetPoint" />
            <Array as="points">
              <mxPoint x="520" y="480" />
              <mxPoint x="520" y="350" />
              <mxPoint x="460" y="350" />
              <mxPoint x="460" y="348" />
            </Array>
          </mxGeometry>
        </mxCell>
        <mxCell id="WABIjmfoGisGZbEx76XI-16" value="arr[i]&amp;lt;=num" style="rhombus;whiteSpace=wrap;html=1;" vertex="1" parent="1">
          <mxGeometry x="360" y="440" width="80" height="80" as="geometry" />
        </mxCell>
        <mxCell id="WABIjmfoGisGZbEx76XI-24" value="no" style="edgeStyle=orthogonalEdgeStyle;rounded=0;orthogonalLoop=1;jettySize=auto;html=1;" edge="1" parent="1" source="WABIjmfoGisGZbEx76XI-20" target="WABIjmfoGisGZbEx76XI-23">
          <mxGeometry relative="1" as="geometry" />
        </mxCell>
        <mxCell id="WABIjmfoGisGZbEx76XI-20" value="for(i=0;i&amp;lt;arr.lenght; i++)" style="shape=hexagon;perimeter=hexagonPerimeter2;whiteSpace=wrap;html=1;fixedSize=1;" vertex="1" parent="1">
          <mxGeometry x="340" y="300" width="120" height="80" as="geometry" />
        </mxCell>
        <mxCell id="WABIjmfoGisGZbEx76XI-26" value="" style="edgeStyle=orthogonalEdgeStyle;rounded=0;orthogonalLoop=1;jettySize=auto;html=1;" edge="1" parent="1" source="WABIjmfoGisGZbEx76XI-23" target="WABIjmfoGisGZbEx76XI-25">
          <mxGeometry relative="1" as="geometry" />
        </mxCell>
        <mxCell id="WABIjmfoGisGZbEx76XI-23" value="print &quot;new array&quot;" style="whiteSpace=wrap;html=1;" vertex="1" parent="1">
          <mxGeometry x="120" y="460" width="120" height="60" as="geometry" />
        </mxCell>
        <mxCell id="WABIjmfoGisGZbEx76XI-25" value="end" style="ellipse;whiteSpace=wrap;html=1;" vertex="1" parent="1">
          <mxGeometry x="120" y="560" width="120" height="80" as="geometry" />
        </mxCell>
      </root>
    </mxGraphModel>
  </diagram>
</mxfile>
